<mxfile host="drawio-plugin" modified="2021-10-25T19:24:56.054Z" agent="5.0 (Windows NT 6.2; Win64; x64) AppleWebKit/537.36 (KHTML, like Gecko) Chrome/89.0.4389.114 Safari/537.36" etag="4Kv0jusbsOhUnY-VBwtC" version="14.7.4" type="embed" pages="3"><diagram id="A3OzOMLrYhD7uQdFmHB1" name="Page-1"><mxGraphModel dx="2112" dy="436" grid="1" gridSize="10" guides="0" tooltips="1" connect="1" arrows="1" fold="1" page="1" pageScale="1" pageWidth="850" pageHeight="1100" background="#F1FAEE" math="0" shadow="0"><root><mxCell id="0"/><mxCell id="1" parent="0"/><mxCell id="4" value="Text" style="text;html=1;strokeColor=none;fillColor=none;align=center;verticalAlign=middle;whiteSpace=wrap;rounded=0;" parent="1" vertex="1"><mxGeometry x="240" y="70" width="40" height="20" as="geometry"/></mxCell><mxCell id="7" value="User" style="text;html=1;strokeColor=none;fillColor=none;align=center;verticalAlign=middle;whiteSpace=wrap;rounded=0;" parent="1" vertex="1"><mxGeometry x="280" y="50" width="40" height="20" as="geometry"/></mxCell><mxCell id="8" value="IdUser" style="text;html=1;strokeColor=none;fillColor=none;align=center;verticalAlign=middle;whiteSpace=wrap;rounded=0;" parent="1" vertex="1"><mxGeometry x="220" y="80" width="40" height="20" as="geometry"/></mxCell><mxCell id="9" value="Addres" style="text;html=1;strokeColor=none;fillColor=none;align=center;verticalAlign=middle;whiteSpace=wrap;rounded=0;" parent="1" vertex="1"><mxGeometry x="220" y="100" width="40" height="20" as="geometry"/></mxCell><mxCell id="10" value="Birthdate" style="text;html=1;strokeColor=none;fillColor=none;align=center;verticalAlign=middle;whiteSpace=wrap;rounded=0;" parent="1" vertex="1"><mxGeometry x="220" y="120" width="40" height="20" as="geometry"/></mxCell><mxCell id="11" value="IdEmployer" style="text;html=1;strokeColor=none;fillColor=none;align=center;verticalAlign=middle;whiteSpace=wrap;rounded=0;" parent="1" vertex="1"><mxGeometry x="220" y="140" width="70" height="20" as="geometry"/></mxCell><mxCell id="12" value="IdEmployee" style="text;html=1;strokeColor=none;fillColor=none;align=center;verticalAlign=middle;whiteSpace=wrap;rounded=0;" parent="1" vertex="1"><mxGeometry x="220" y="160" width="40" height="20" as="geometry"/></mxCell><mxCell id="13" value="" style="rounded=1;whiteSpace=wrap;html=1;" parent="1" vertex="1"><mxGeometry x="-720" y="210" width="120" height="60" as="geometry"/></mxCell><mxCell id="15" value="Entity" style="rounded=1;arcSize=10;whiteSpace=wrap;html=1;align=center;" parent="1" vertex="1"><mxGeometry x="-890" y="510" width="100" height="40" as="geometry"/></mxCell><mxCell id="16" value="&lt;div style=&quot;box-sizing: border-box ; width: 100% ; background: #e4e4e4 ; padding: 2px&quot;&gt;Users&lt;/div&gt;&lt;table style=&quot;width: 100% ; font-size: 1em&quot; cellpadding=&quot;2&quot; cellspacing=&quot;0&quot;&gt;&lt;tbody&gt;&lt;tr&gt;&lt;td&gt;PK&lt;/td&gt;&lt;td&gt;IdUser&lt;/td&gt;&lt;/tr&gt;&lt;tr&gt;&lt;td&gt;FK1&lt;/td&gt;&lt;td&gt;IdEmployer&lt;br&gt;IdEmployee&lt;/td&gt;&lt;/tr&gt;&lt;tr&gt;&lt;td&gt;&lt;/td&gt;&lt;td&gt;Address&lt;br&gt;Birthdate&lt;/td&gt;&lt;/tr&gt;&lt;/tbody&gt;&lt;/table&gt;" style="verticalAlign=top;align=left;overflow=fill;html=1;" parent="1" vertex="1"><mxGeometry x="-40" y="110" width="180" height="90" as="geometry"/></mxCell><mxCell id="17" value="" style="rounded=0;orthogonalLoop=1;jettySize=auto;html=1;endArrow=none;endFill=0;" parent="1" target="19" edge="1"><mxGeometry relative="1" as="geometry"><mxPoint x="150" y="155" as="sourcePoint"/></mxGeometry></mxCell><mxCell id="20" style="edgeStyle=orthogonalEdgeStyle;rounded=0;orthogonalLoop=1;jettySize=auto;html=1;entryX=0.5;entryY=0;entryDx=0;entryDy=0;" parent="1" source="19" target="12" edge="1"><mxGeometry relative="1" as="geometry"/></mxCell><mxCell id="19" value="" style="ellipse;whiteSpace=wrap;html=1;fontFamily=Helvetica;fontSize=12;fontColor=#000000;align=center;strokeColor=#000000;fillColor=#ffffff;points=[];aspect=fixed;resizable=0;" parent="1" vertex="1"><mxGeometry x="165" y="150" width="10" height="10" as="geometry"/></mxCell><mxCell id="21" value="" style="edgeStyle=entityRelationEdgeStyle;fontSize=12;html=1;endArrow=ERoneToMany;exitX=1;exitY=0.5;exitDx=0;exitDy=0;" parent="1" source="16" edge="1"><mxGeometry width="100" height="100" relative="1" as="geometry"><mxPoint x="120" y="210" as="sourcePoint"/><mxPoint x="220" y="300" as="targetPoint"/></mxGeometry></mxCell></root></mxGraphModel></diagram><diagram id="k8Yhj0mkYNSPqb5TtQWA" name="Page-2"><mxGraphModel dx="1680" dy="727" grid="1" gridSize="10" guides="1" tooltips="1" connect="1" arrows="1" fold="1" page="1" pageScale="1" pageWidth="850" pageHeight="1100" background="#283618" math="0" shadow="0"><root><mxCell id="fl2PcskqdFDL9NBK9kbo-0"/><mxCell id="fl2PcskqdFDL9NBK9kbo-1" parent="fl2PcskqdFDL9NBK9kbo-0"/><mxCell id="fl2PcskqdFDL9NBK9kbo-15" value="Users" style="shape=table;startSize=30;container=1;collapsible=1;childLayout=tableLayout;fixedRows=1;rowLines=0;fontStyle=1;align=center;resizeLast=1;rounded=0;sketch=0;fillColor=#e51400;strokeColor=#B20000;fontColor=#ffffff;" parent="fl2PcskqdFDL9NBK9kbo-1" vertex="1"><mxGeometry x="270" y="70" width="180" height="160" as="geometry"/></mxCell><mxCell id="fl2PcskqdFDL9NBK9kbo-16" value="" style="shape=partialRectangle;collapsible=0;dropTarget=0;pointerEvents=0;fillColor=none;top=0;left=0;bottom=0;right=0;points=[[0,0.5],[1,0.5]];portConstraint=eastwest;strokeColor=#DDA15E;fontColor=#FEFAE0;" parent="fl2PcskqdFDL9NBK9kbo-15" vertex="1"><mxGeometry y="30" width="180" height="30" as="geometry"/></mxCell><mxCell id="fl2PcskqdFDL9NBK9kbo-17" value="PK" style="shape=partialRectangle;connectable=0;top=0;left=0;bottom=0;right=0;fontStyle=1;overflow=hidden;fillColor=#BC6C25;strokeColor=#DDA15E;fontColor=#FEFAE0;" parent="fl2PcskqdFDL9NBK9kbo-16" vertex="1"><mxGeometry width="60" height="30" as="geometry"/></mxCell><mxCell id="fl2PcskqdFDL9NBK9kbo-18" value="IdUser" style="shape=partialRectangle;connectable=0;top=0;left=0;bottom=0;right=0;align=left;spacingLeft=6;fontStyle=5;overflow=hidden;fillColor=#BC6C25;strokeColor=#DDA15E;fontColor=#FEFAE0;" parent="fl2PcskqdFDL9NBK9kbo-16" vertex="1"><mxGeometry x="60" width="120" height="30" as="geometry"/></mxCell><mxCell id="fl2PcskqdFDL9NBK9kbo-19" value="" style="shape=partialRectangle;collapsible=0;dropTarget=0;pointerEvents=0;fillColor=none;top=0;left=0;bottom=1;right=0;points=[[0,0.5],[1,0.5]];portConstraint=eastwest;strokeColor=#DDA15E;fontColor=#FEFAE0;" parent="fl2PcskqdFDL9NBK9kbo-15" vertex="1"><mxGeometry y="60" width="180" height="30" as="geometry"/></mxCell><mxCell id="fl2PcskqdFDL9NBK9kbo-20" value="FK1" style="shape=partialRectangle;connectable=0;top=0;left=0;bottom=0;right=0;fontStyle=1;overflow=hidden;fillColor=#BC6C25;strokeColor=#DDA15E;fontColor=#FEFAE0;" parent="fl2PcskqdFDL9NBK9kbo-19" vertex="1"><mxGeometry width="60" height="30" as="geometry"/></mxCell><mxCell id="fl2PcskqdFDL9NBK9kbo-21" value="IdEmployer" style="shape=partialRectangle;connectable=0;top=0;left=0;bottom=0;right=0;align=left;spacingLeft=6;fontStyle=5;overflow=hidden;fillColor=#BC6C25;strokeColor=#DDA15E;fontColor=#FEFAE0;" parent="fl2PcskqdFDL9NBK9kbo-19" vertex="1"><mxGeometry x="60" width="120" height="30" as="geometry"/></mxCell><mxCell id="fl2PcskqdFDL9NBK9kbo-22" value="" style="shape=partialRectangle;collapsible=0;dropTarget=0;pointerEvents=0;fillColor=none;top=0;left=0;bottom=0;right=0;points=[[0,0.5],[1,0.5]];portConstraint=eastwest;strokeColor=#DDA15E;fontColor=#FEFAE0;" parent="fl2PcskqdFDL9NBK9kbo-15" vertex="1"><mxGeometry y="90" width="180" height="30" as="geometry"/></mxCell><mxCell id="fl2PcskqdFDL9NBK9kbo-23" value="Fk2" style="shape=partialRectangle;connectable=0;top=0;left=0;bottom=0;right=0;editable=1;overflow=hidden;fillColor=#BC6C25;strokeColor=#DDA15E;fontColor=#FEFAE0;" parent="fl2PcskqdFDL9NBK9kbo-22" vertex="1"><mxGeometry width="60" height="30" as="geometry"/></mxCell><mxCell id="fl2PcskqdFDL9NBK9kbo-24" value="IdEmployee" style="shape=partialRectangle;connectable=0;top=0;left=0;bottom=0;right=0;align=left;spacingLeft=6;overflow=hidden;fillColor=#BC6C25;strokeColor=#DDA15E;fontColor=#FEFAE0;" parent="fl2PcskqdFDL9NBK9kbo-22" vertex="1"><mxGeometry x="60" width="120" height="30" as="geometry"/></mxCell><mxCell id="fl2PcskqdFDL9NBK9kbo-25" value="" style="shape=partialRectangle;collapsible=0;dropTarget=0;pointerEvents=0;fillColor=none;top=0;left=0;bottom=0;right=0;points=[[0,0.5],[1,0.5]];portConstraint=eastwest;strokeColor=#DDA15E;fontColor=#FEFAE0;" parent="fl2PcskqdFDL9NBK9kbo-15" vertex="1"><mxGeometry y="120" width="180" height="30" as="geometry"/></mxCell><mxCell id="fl2PcskqdFDL9NBK9kbo-26" value="" style="shape=partialRectangle;connectable=0;top=0;left=0;bottom=0;right=0;editable=1;overflow=hidden;fillColor=#BC6C25;strokeColor=#DDA15E;fontColor=#FEFAE0;" parent="fl2PcskqdFDL9NBK9kbo-25" vertex="1"><mxGeometry width="60" height="30" as="geometry"/></mxCell><mxCell id="fl2PcskqdFDL9NBK9kbo-27" value="Name&#10;" style="shape=partialRectangle;connectable=0;top=0;left=0;bottom=0;right=0;align=left;spacingLeft=6;overflow=hidden;fillColor=#BC6C25;strokeColor=#DDA15E;fontColor=#FEFAE0;" parent="fl2PcskqdFDL9NBK9kbo-25" vertex="1"><mxGeometry x="60" width="120" height="30" as="geometry"/></mxCell><mxCell id="fl2PcskqdFDL9NBK9kbo-28" value="" style="shape=partialRectangle;connectable=0;top=0;left=0;bottom=0;right=0;editable=1;overflow=hidden;fillColor=#BC6C25;strokeColor=#DDA15E;fontColor=#FEFAE0;" parent="fl2PcskqdFDL9NBK9kbo-1" vertex="1"><mxGeometry x="270" y="220" width="60" height="30" as="geometry"/></mxCell><mxCell id="fl2PcskqdFDL9NBK9kbo-29" value="Email" style="shape=partialRectangle;connectable=0;top=0;left=0;bottom=0;right=0;align=left;spacingLeft=6;overflow=hidden;fillColor=#BC6C25;strokeColor=#DDA15E;fontColor=#FEFAE0;" parent="fl2PcskqdFDL9NBK9kbo-1" vertex="1"><mxGeometry x="330" y="220" width="120" height="30" as="geometry"/></mxCell><mxCell id="fl2PcskqdFDL9NBK9kbo-33" value="Employer" style="shape=table;startSize=30;container=1;collapsible=1;childLayout=tableLayout;fixedRows=1;rowLines=0;fontStyle=1;align=center;resizeLast=1;rounded=0;sketch=0;fillColor=#e51400;strokeColor=#B20000;fontColor=#ffffff;" parent="fl2PcskqdFDL9NBK9kbo-1" vertex="1"><mxGeometry x="580" y="280" width="180" height="150" as="geometry"/></mxCell><mxCell id="fl2PcskqdFDL9NBK9kbo-34" value="" style="shape=partialRectangle;collapsible=0;dropTarget=0;pointerEvents=0;fillColor=none;top=0;left=0;bottom=1;right=0;points=[[0,0.5],[1,0.5]];portConstraint=eastwest;strokeColor=#DDA15E;fontColor=#FEFAE0;" parent="fl2PcskqdFDL9NBK9kbo-33" vertex="1"><mxGeometry y="30" width="180" height="30" as="geometry"/></mxCell><mxCell id="fl2PcskqdFDL9NBK9kbo-35" value="PK" style="shape=partialRectangle;connectable=0;top=0;left=0;bottom=0;right=0;fontStyle=1;overflow=hidden;fillColor=#BC6C25;strokeColor=#DDA15E;fontColor=#FEFAE0;" parent="fl2PcskqdFDL9NBK9kbo-34" vertex="1"><mxGeometry width="30" height="30" as="geometry"/></mxCell><mxCell id="fl2PcskqdFDL9NBK9kbo-36" value="IdEmployer" style="shape=partialRectangle;connectable=0;top=0;left=0;bottom=0;right=0;align=left;spacingLeft=6;fontStyle=5;overflow=hidden;fillColor=#BC6C25;strokeColor=#DDA15E;fontColor=#FEFAE0;" parent="fl2PcskqdFDL9NBK9kbo-34" vertex="1"><mxGeometry x="30" width="150" height="30" as="geometry"/></mxCell><mxCell id="fl2PcskqdFDL9NBK9kbo-37" value="" style="shape=partialRectangle;collapsible=0;dropTarget=0;pointerEvents=0;fillColor=none;top=0;left=0;bottom=0;right=0;points=[[0,0.5],[1,0.5]];portConstraint=eastwest;strokeColor=#DDA15E;fontColor=#FEFAE0;" parent="fl2PcskqdFDL9NBK9kbo-33" vertex="1"><mxGeometry y="60" width="180" height="20" as="geometry"/></mxCell><mxCell id="fl2PcskqdFDL9NBK9kbo-38" value="FK" style="shape=partialRectangle;connectable=0;top=0;left=0;bottom=0;right=0;editable=1;overflow=hidden;fillColor=#BC6C25;strokeColor=#DDA15E;fontColor=#FEFAE0;" parent="fl2PcskqdFDL9NBK9kbo-37" vertex="1"><mxGeometry width="30" height="20" as="geometry"/></mxCell><mxCell id="fl2PcskqdFDL9NBK9kbo-39" value="IdPozitie" style="shape=partialRectangle;connectable=0;top=0;left=0;bottom=0;right=0;align=left;spacingLeft=6;overflow=hidden;fillColor=#BC6C25;strokeColor=#DDA15E;fontColor=#FEFAE0;" parent="fl2PcskqdFDL9NBK9kbo-37" vertex="1"><mxGeometry x="30" width="150" height="20" as="geometry"/></mxCell><mxCell id="fl2PcskqdFDL9NBK9kbo-40" value="" style="shape=partialRectangle;collapsible=0;dropTarget=0;pointerEvents=0;fillColor=none;top=0;left=0;bottom=0;right=0;points=[[0,0.5],[1,0.5]];portConstraint=eastwest;strokeColor=#DDA15E;fontColor=#FEFAE0;" parent="fl2PcskqdFDL9NBK9kbo-33" vertex="1"><mxGeometry y="80" width="180" height="30" as="geometry"/></mxCell><mxCell id="fl2PcskqdFDL9NBK9kbo-41" value="" style="shape=partialRectangle;connectable=0;top=0;left=0;bottom=0;right=0;editable=1;overflow=hidden;fillColor=#BC6C25;strokeColor=#DDA15E;fontColor=#FEFAE0;" parent="fl2PcskqdFDL9NBK9kbo-40" vertex="1"><mxGeometry width="30" height="30" as="geometry"/></mxCell><mxCell id="fl2PcskqdFDL9NBK9kbo-42" value="City" style="shape=partialRectangle;connectable=0;top=0;left=0;bottom=0;right=0;align=left;spacingLeft=6;overflow=hidden;fillColor=#BC6C25;strokeColor=#DDA15E;fontColor=#FEFAE0;" parent="fl2PcskqdFDL9NBK9kbo-40" vertex="1"><mxGeometry x="30" width="150" height="30" as="geometry"/></mxCell><mxCell id="fl2PcskqdFDL9NBK9kbo-43" value="" style="shape=partialRectangle;collapsible=0;dropTarget=0;pointerEvents=0;fillColor=none;top=0;left=0;bottom=0;right=0;points=[[0,0.5],[1,0.5]];portConstraint=eastwest;strokeColor=#DDA15E;fontColor=#FEFAE0;" parent="fl2PcskqdFDL9NBK9kbo-33" vertex="1"><mxGeometry y="110" width="180" height="30" as="geometry"/></mxCell><mxCell id="fl2PcskqdFDL9NBK9kbo-44" value="" style="shape=partialRectangle;connectable=0;top=0;left=0;bottom=0;right=0;editable=1;overflow=hidden;fillColor=#BC6C25;strokeColor=#DDA15E;fontColor=#FEFAE0;" parent="fl2PcskqdFDL9NBK9kbo-43" vertex="1"><mxGeometry width="30" height="30" as="geometry"/></mxCell><mxCell id="fl2PcskqdFDL9NBK9kbo-45" value="Describe" style="shape=partialRectangle;connectable=0;top=0;left=0;bottom=0;right=0;align=left;spacingLeft=6;overflow=hidden;fillColor=#BC6C25;strokeColor=#DDA15E;fontColor=#FEFAE0;" parent="fl2PcskqdFDL9NBK9kbo-43" vertex="1"><mxGeometry x="30" width="150" height="30" as="geometry"/></mxCell><mxCell id="fl2PcskqdFDL9NBK9kbo-49" value="" style="endArrow=classic;html=1;fontColor=#FEFAE0;strokeColor=#B20000;fillColor=#e51400;entryX=0.012;entryY=-0.007;entryDx=0;entryDy=0;entryPerimeter=0;" parent="fl2PcskqdFDL9NBK9kbo-1" target="fl2PcskqdFDL9NBK9kbo-34" edge="1"><mxGeometry width="50" height="50" relative="1" as="geometry"><mxPoint x="450" y="90" as="sourcePoint"/><mxPoint x="500" y="40" as="targetPoint"/></mxGeometry></mxCell><mxCell id="6poGFtXIilCESYOU6Tmr-15" value="NameCompany" style="shape=partialRectangle;connectable=0;top=0;left=0;bottom=0;right=0;align=left;spacingLeft=6;overflow=hidden;fillColor=#BC6C25;strokeColor=#DDA15E;fontColor=#FEFAE0;" parent="fl2PcskqdFDL9NBK9kbo-1" vertex="1"><mxGeometry x="610" y="420" width="150" height="30" as="geometry"/></mxCell><mxCell id="6poGFtXIilCESYOU6Tmr-30" value="Position" style="shape=table;startSize=30;container=1;collapsible=1;childLayout=tableLayout;fixedRows=1;rowLines=0;fontStyle=1;align=center;resizeLast=1;rounded=0;sketch=0;fillColor=#e51400;strokeColor=#B20000;fontColor=#ffffff;" parent="fl2PcskqdFDL9NBK9kbo-1" vertex="1"><mxGeometry x="920" y="270" width="180" height="160" as="geometry"/></mxCell><mxCell id="6poGFtXIilCESYOU6Tmr-31" value="" style="shape=partialRectangle;collapsible=0;dropTarget=0;pointerEvents=0;fillColor=none;top=0;left=0;bottom=1;right=0;points=[[0,0.5],[1,0.5]];portConstraint=eastwest;strokeColor=#DDA15E;fontColor=#FEFAE0;" parent="6poGFtXIilCESYOU6Tmr-30" vertex="1"><mxGeometry y="30" width="180" height="30" as="geometry"/></mxCell><mxCell id="6poGFtXIilCESYOU6Tmr-32" value="PK" style="shape=partialRectangle;connectable=0;top=0;left=0;bottom=0;right=0;fontStyle=1;overflow=hidden;fillColor=#BC6C25;strokeColor=#DDA15E;fontColor=#FEFAE0;" parent="6poGFtXIilCESYOU6Tmr-31" vertex="1"><mxGeometry width="29.999999999999996" height="30" as="geometry"/></mxCell><mxCell id="6poGFtXIilCESYOU6Tmr-33" value="IdPozitie" style="shape=partialRectangle;connectable=0;top=0;left=0;bottom=0;right=0;align=left;spacingLeft=6;fontStyle=5;overflow=hidden;fillColor=#BC6C25;strokeColor=#DDA15E;fontColor=#FEFAE0;" parent="6poGFtXIilCESYOU6Tmr-31" vertex="1"><mxGeometry x="29.999999999999996" width="150" height="30" as="geometry"/></mxCell><mxCell id="6poGFtXIilCESYOU6Tmr-34" value="" style="shape=partialRectangle;collapsible=0;dropTarget=0;pointerEvents=0;fillColor=none;top=0;left=0;bottom=0;right=0;points=[[0,0.5],[1,0.5]];portConstraint=eastwest;strokeColor=#DDA15E;fontColor=#FEFAE0;" parent="6poGFtXIilCESYOU6Tmr-30" vertex="1"><mxGeometry y="60" width="180" height="30" as="geometry"/></mxCell><mxCell id="6poGFtXIilCESYOU6Tmr-35" value="" style="shape=partialRectangle;connectable=0;top=0;left=0;bottom=0;right=0;editable=1;overflow=hidden;fillColor=#BC6C25;strokeColor=#DDA15E;fontColor=#FEFAE0;" parent="6poGFtXIilCESYOU6Tmr-34" vertex="1"><mxGeometry width="29.999999999999996" height="30" as="geometry"/></mxCell><mxCell id="6poGFtXIilCESYOU6Tmr-36" value="IdEmployer" style="shape=partialRectangle;connectable=0;top=0;left=0;bottom=0;right=0;align=left;spacingLeft=6;overflow=hidden;fillColor=#BC6C25;strokeColor=#DDA15E;fontColor=#FEFAE0;" parent="6poGFtXIilCESYOU6Tmr-34" vertex="1"><mxGeometry x="29.999999999999996" width="150" height="30" as="geometry"/></mxCell><mxCell id="6poGFtXIilCESYOU6Tmr-37" value="" style="shape=partialRectangle;collapsible=0;dropTarget=0;pointerEvents=0;fillColor=none;top=0;left=0;bottom=0;right=0;points=[[0,0.5],[1,0.5]];portConstraint=eastwest;strokeColor=#DDA15E;fontColor=#FEFAE0;" parent="6poGFtXIilCESYOU6Tmr-30" vertex="1"><mxGeometry y="90" width="180" height="40" as="geometry"/></mxCell><mxCell id="6poGFtXIilCESYOU6Tmr-38" value="" style="shape=partialRectangle;connectable=0;top=0;left=0;bottom=0;right=0;editable=1;overflow=hidden;fillColor=#BC6C25;strokeColor=#DDA15E;fontColor=#FEFAE0;" parent="6poGFtXIilCESYOU6Tmr-37" vertex="1"><mxGeometry width="29.999999999999996" height="40" as="geometry"/></mxCell><mxCell id="6poGFtXIilCESYOU6Tmr-39" value="IdAnnounce" style="shape=partialRectangle;connectable=0;top=0;left=0;bottom=0;right=0;align=left;spacingLeft=6;overflow=hidden;fillColor=#BC6C25;strokeColor=#DDA15E;fontColor=#FEFAE0;" parent="6poGFtXIilCESYOU6Tmr-37" vertex="1"><mxGeometry x="29.999999999999996" width="150" height="40" as="geometry"/></mxCell><mxCell id="6poGFtXIilCESYOU6Tmr-40" value="" style="shape=partialRectangle;collapsible=0;dropTarget=0;pointerEvents=0;fillColor=none;top=0;left=0;bottom=0;right=0;points=[[0,0.5],[1,0.5]];portConstraint=eastwest;strokeColor=#DDA15E;fontColor=#FEFAE0;" parent="6poGFtXIilCESYOU6Tmr-30" vertex="1"><mxGeometry y="130" width="180" height="20" as="geometry"/></mxCell><mxCell id="6poGFtXIilCESYOU6Tmr-41" value="" style="shape=partialRectangle;connectable=0;top=0;left=0;bottom=0;right=0;editable=1;overflow=hidden;fillColor=#BC6C25;strokeColor=#DDA15E;fontColor=#FEFAE0;" parent="6poGFtXIilCESYOU6Tmr-40" vertex="1"><mxGeometry width="29.999999999999996" height="20" as="geometry"/></mxCell><mxCell id="6poGFtXIilCESYOU6Tmr-42" value="NamePozition" style="shape=partialRectangle;connectable=0;top=0;left=0;bottom=0;right=0;align=left;spacingLeft=6;overflow=hidden;fillColor=#BC6C25;strokeColor=#DDA15E;fontColor=#FEFAE0;" parent="6poGFtXIilCESYOU6Tmr-40" vertex="1"><mxGeometry x="29.999999999999996" width="150" height="20" as="geometry"/></mxCell><mxCell id="6poGFtXIilCESYOU6Tmr-44" value="" style="shape=partialRectangle;connectable=0;top=0;left=0;bottom=0;right=0;editable=1;overflow=hidden;fillColor=#BC6C25;strokeColor=#DDA15E;fontColor=#FEFAE0;" parent="fl2PcskqdFDL9NBK9kbo-1" vertex="1"><mxGeometry x="610" y="220" width="30" height="30" as="geometry"/></mxCell><mxCell id="6poGFtXIilCESYOU6Tmr-46" value="" style="shape=partialRectangle;connectable=0;top=0;left=0;bottom=0;right=0;editable=1;overflow=hidden;fillColor=#BC6C25;strokeColor=#DDA15E;fontColor=#FEFAE0;" parent="fl2PcskqdFDL9NBK9kbo-1" vertex="1"><mxGeometry x="580" y="420" width="30" height="30" as="geometry"/></mxCell><mxCell id="6poGFtXIilCESYOU6Tmr-48" value="" style="endArrow=classic;html=1;fontColor=#FEFAE0;strokeColor=#B20000;fillColor=#e51400;exitX=1.027;exitY=0.208;exitDx=0;exitDy=0;exitPerimeter=0;entryX=0.008;entryY=0.722;entryDx=0;entryDy=0;entryPerimeter=0;" parent="fl2PcskqdFDL9NBK9kbo-1" source="fl2PcskqdFDL9NBK9kbo-37" target="6poGFtXIilCESYOU6Tmr-31" edge="1"><mxGeometry width="50" height="50" relative="1" as="geometry"><mxPoint x="880" y="280" as="sourcePoint"/><mxPoint x="760" y="350" as="targetPoint"/><Array as="points"><mxPoint x="880" y="270"/><mxPoint x="890" y="290"/></Array></mxGeometry></mxCell><mxCell id="6poGFtXIilCESYOU6Tmr-49" value="Annouce" style="shape=table;startSize=30;container=1;collapsible=1;childLayout=tableLayout;fixedRows=1;rowLines=0;fontStyle=1;align=center;resizeLast=1;rounded=0;sketch=0;fillColor=#e51400;strokeColor=#B20000;fontColor=#ffffff;" parent="fl2PcskqdFDL9NBK9kbo-1" vertex="1"><mxGeometry x="1080" y="510" width="180" height="150" as="geometry"/></mxCell><mxCell id="6poGFtXIilCESYOU6Tmr-50" value="" style="shape=partialRectangle;collapsible=0;dropTarget=0;pointerEvents=0;fillColor=none;top=0;left=0;bottom=1;right=0;points=[[0,0.5],[1,0.5]];portConstraint=eastwest;strokeColor=#DDA15E;fontColor=#FEFAE0;" parent="6poGFtXIilCESYOU6Tmr-49" vertex="1"><mxGeometry y="30" width="180" height="30" as="geometry"/></mxCell><mxCell id="6poGFtXIilCESYOU6Tmr-51" value="PK" style="shape=partialRectangle;connectable=0;top=0;left=0;bottom=0;right=0;fontStyle=1;overflow=hidden;fillColor=#BC6C25;strokeColor=#DDA15E;fontColor=#FEFAE0;" parent="6poGFtXIilCESYOU6Tmr-50" vertex="1"><mxGeometry width="30" height="30" as="geometry"/></mxCell><mxCell id="6poGFtXIilCESYOU6Tmr-52" value="IdAnnounce" style="shape=partialRectangle;connectable=0;top=0;left=0;bottom=0;right=0;align=left;spacingLeft=6;fontStyle=5;overflow=hidden;fillColor=#BC6C25;strokeColor=#DDA15E;fontColor=#FEFAE0;" parent="6poGFtXIilCESYOU6Tmr-50" vertex="1"><mxGeometry x="30" width="150" height="30" as="geometry"/></mxCell><mxCell id="6poGFtXIilCESYOU6Tmr-53" value="" style="shape=partialRectangle;collapsible=0;dropTarget=0;pointerEvents=0;fillColor=none;top=0;left=0;bottom=0;right=0;points=[[0,0.5],[1,0.5]];portConstraint=eastwest;strokeColor=#DDA15E;fontColor=#FEFAE0;" parent="6poGFtXIilCESYOU6Tmr-49" vertex="1"><mxGeometry y="60" width="180" height="20" as="geometry"/></mxCell><mxCell id="6poGFtXIilCESYOU6Tmr-54" value="FK" style="shape=partialRectangle;connectable=0;top=0;left=0;bottom=0;right=0;editable=1;overflow=hidden;fillColor=#BC6C25;strokeColor=#DDA15E;fontColor=#FEFAE0;" parent="6poGFtXIilCESYOU6Tmr-53" vertex="1"><mxGeometry width="30" height="20" as="geometry"/></mxCell><mxCell id="6poGFtXIilCESYOU6Tmr-55" value="IdPozitie" style="shape=partialRectangle;connectable=0;top=0;left=0;bottom=0;right=0;align=left;spacingLeft=6;overflow=hidden;fillColor=#BC6C25;strokeColor=#DDA15E;fontColor=#FEFAE0;" parent="6poGFtXIilCESYOU6Tmr-53" vertex="1"><mxGeometry x="30" width="150" height="20" as="geometry"/></mxCell><mxCell id="6poGFtXIilCESYOU6Tmr-56" value="" style="shape=partialRectangle;collapsible=0;dropTarget=0;pointerEvents=0;fillColor=none;top=0;left=0;bottom=0;right=0;points=[[0,0.5],[1,0.5]];portConstraint=eastwest;strokeColor=#DDA15E;fontColor=#FEFAE0;" parent="6poGFtXIilCESYOU6Tmr-49" vertex="1"><mxGeometry y="80" width="180" height="30" as="geometry"/></mxCell><mxCell id="6poGFtXIilCESYOU6Tmr-57" value="" style="shape=partialRectangle;connectable=0;top=0;left=0;bottom=0;right=0;editable=1;overflow=hidden;fillColor=#BC6C25;strokeColor=#DDA15E;fontColor=#FEFAE0;" parent="6poGFtXIilCESYOU6Tmr-56" vertex="1"><mxGeometry width="30" height="30" as="geometry"/></mxCell><mxCell id="6poGFtXIilCESYOU6Tmr-58" value="Describe" style="shape=partialRectangle;connectable=0;top=0;left=0;bottom=0;right=0;align=left;spacingLeft=6;overflow=hidden;fillColor=#BC6C25;strokeColor=#DDA15E;fontColor=#FEFAE0;" parent="6poGFtXIilCESYOU6Tmr-56" vertex="1"><mxGeometry x="30" width="150" height="30" as="geometry"/></mxCell><mxCell id="6poGFtXIilCESYOU6Tmr-59" value="" style="shape=partialRectangle;collapsible=0;dropTarget=0;pointerEvents=0;fillColor=none;top=0;left=0;bottom=0;right=0;points=[[0,0.5],[1,0.5]];portConstraint=eastwest;strokeColor=#DDA15E;fontColor=#FEFAE0;" parent="6poGFtXIilCESYOU6Tmr-49" vertex="1"><mxGeometry y="110" width="180" height="30" as="geometry"/></mxCell><mxCell id="6poGFtXIilCESYOU6Tmr-60" value="" style="shape=partialRectangle;connectable=0;top=0;left=0;bottom=0;right=0;editable=1;overflow=hidden;fillColor=#BC6C25;strokeColor=#DDA15E;fontColor=#FEFAE0;" parent="6poGFtXIilCESYOU6Tmr-59" vertex="1"><mxGeometry width="30" height="30" as="geometry"/></mxCell><mxCell id="6poGFtXIilCESYOU6Tmr-61" value="Date" style="shape=partialRectangle;connectable=0;top=0;left=0;bottom=0;right=0;align=left;spacingLeft=6;overflow=hidden;fillColor=#BC6C25;strokeColor=#DDA15E;fontColor=#FEFAE0;" parent="6poGFtXIilCESYOU6Tmr-59" vertex="1"><mxGeometry x="30" width="150" height="30" as="geometry"/></mxCell><mxCell id="6poGFtXIilCESYOU6Tmr-62" value="" style="shape=partialRectangle;connectable=0;top=0;left=0;bottom=0;right=0;align=left;spacingLeft=6;overflow=hidden;fillColor=#BC6C25;strokeColor=#DDA15E;fontColor=#FEFAE0;" parent="fl2PcskqdFDL9NBK9kbo-1" vertex="1"><mxGeometry x="1110" y="650" width="150" height="30" as="geometry"/></mxCell><mxCell id="6poGFtXIilCESYOU6Tmr-76" value="" style="shape=partialRectangle;connectable=0;top=0;left=0;bottom=0;right=0;editable=1;overflow=hidden;fillColor=#BC6C25;strokeColor=#DDA15E;fontColor=#FEFAE0;" parent="fl2PcskqdFDL9NBK9kbo-1" vertex="1"><mxGeometry x="1080" y="650" width="40" height="30" as="geometry"/></mxCell><mxCell id="6poGFtXIilCESYOU6Tmr-77" value="" style="shape=partialRectangle;collapsible=0;dropTarget=0;pointerEvents=0;fillColor=none;top=0;left=0;bottom=0;right=0;points=[[0,0.5],[1,0.5]];portConstraint=eastwest;strokeColor=#DDA15E;fontColor=#FEFAE0;" parent="fl2PcskqdFDL9NBK9kbo-1" vertex="1"><mxGeometry x="920" y="410" width="180" height="30" as="geometry"/></mxCell><mxCell id="6poGFtXIilCESYOU6Tmr-78" value="" style="shape=partialRectangle;connectable=0;top=0;left=0;bottom=0;right=0;editable=1;overflow=hidden;fillColor=#BC6C25;strokeColor=#DDA15E;fontColor=#FEFAE0;" parent="6poGFtXIilCESYOU6Tmr-77" vertex="1"><mxGeometry width="29.999999999999996" height="30" as="geometry"/></mxCell><mxCell id="6poGFtXIilCESYOU6Tmr-79" value="DateStart" style="shape=partialRectangle;connectable=0;top=0;left=0;bottom=0;right=0;align=left;spacingLeft=6;overflow=hidden;fillColor=#BC6C25;strokeColor=#DDA15E;fontColor=#FEFAE0;" parent="6poGFtXIilCESYOU6Tmr-77" vertex="1"><mxGeometry x="29.999999999999996" width="150" height="30" as="geometry"/></mxCell><mxCell id="6poGFtXIilCESYOU6Tmr-80" value="" style="shape=partialRectangle;collapsible=0;dropTarget=0;pointerEvents=0;fillColor=none;top=0;left=0;bottom=0;right=0;points=[[0,0.5],[1,0.5]];portConstraint=eastwest;strokeColor=#DDA15E;fontColor=#FEFAE0;" parent="fl2PcskqdFDL9NBK9kbo-1" vertex="1"><mxGeometry x="920" y="440" width="180" height="30" as="geometry"/></mxCell><mxCell id="6poGFtXIilCESYOU6Tmr-81" value="" style="shape=partialRectangle;connectable=0;top=0;left=0;bottom=0;right=0;editable=1;overflow=hidden;fillColor=#BC6C25;strokeColor=#DDA15E;fontColor=#FEFAE0;" parent="6poGFtXIilCESYOU6Tmr-80" vertex="1"><mxGeometry width="29.999999999999996" height="30" as="geometry"/></mxCell><mxCell id="6poGFtXIilCESYOU6Tmr-82" value="DateFin" style="shape=partialRectangle;connectable=0;top=0;left=0;bottom=0;right=0;align=left;spacingLeft=6;overflow=hidden;fillColor=#BC6C25;strokeColor=#DDA15E;fontColor=#FEFAE0;" parent="6poGFtXIilCESYOU6Tmr-80" vertex="1"><mxGeometry x="29.999999999999996" width="150" height="30" as="geometry"/></mxCell><mxCell id="6poGFtXIilCESYOU6Tmr-83" value="" style="endArrow=classic;html=1;fontColor=#FEFAE0;strokeColor=#B20000;fillColor=#e51400;exitX=1.027;exitY=0.208;exitDx=0;exitDy=0;exitPerimeter=0;" parent="fl2PcskqdFDL9NBK9kbo-1" edge="1"><mxGeometry width="50" height="50" relative="1" as="geometry"><mxPoint x="1100" y="290.0000000000001" as="sourcePoint"/><mxPoint x="1195" y="510" as="targetPoint"/><Array as="points"><mxPoint x="1185.1399999999999" y="405.84000000000003"/><mxPoint x="1195.1399999999999" y="425.84000000000003"/></Array></mxGeometry></mxCell><mxCell id="6poGFtXIilCESYOU6Tmr-84" value="Employee" style="shape=table;startSize=30;container=1;collapsible=1;childLayout=tableLayout;fixedRows=1;rowLines=0;fontStyle=1;align=center;resizeLast=1;rounded=0;sketch=0;fillColor=#e51400;strokeColor=#B20000;fontColor=#ffffff;" parent="fl2PcskqdFDL9NBK9kbo-1" vertex="1"><mxGeometry x="100" y="370" width="180" height="160" as="geometry"/></mxCell><mxCell id="6poGFtXIilCESYOU6Tmr-85" value="" style="shape=partialRectangle;collapsible=0;dropTarget=0;pointerEvents=0;fillColor=none;top=0;left=0;bottom=0;right=0;points=[[0,0.5],[1,0.5]];portConstraint=eastwest;strokeColor=#DDA15E;fontColor=#FEFAE0;" parent="6poGFtXIilCESYOU6Tmr-84" vertex="1"><mxGeometry y="30" width="180" height="30" as="geometry"/></mxCell><mxCell id="6poGFtXIilCESYOU6Tmr-86" value="PK" style="shape=partialRectangle;connectable=0;top=0;left=0;bottom=0;right=0;fontStyle=1;overflow=hidden;fillColor=#BC6C25;strokeColor=#DDA15E;fontColor=#FEFAE0;" parent="6poGFtXIilCESYOU6Tmr-85" vertex="1"><mxGeometry width="60" height="30" as="geometry"/></mxCell><mxCell id="6poGFtXIilCESYOU6Tmr-87" value="IdUser" style="shape=partialRectangle;connectable=0;top=0;left=0;bottom=0;right=0;align=left;spacingLeft=6;fontStyle=5;overflow=hidden;fillColor=#BC6C25;strokeColor=#DDA15E;fontColor=#FEFAE0;" parent="6poGFtXIilCESYOU6Tmr-85" vertex="1"><mxGeometry x="60" width="120" height="30" as="geometry"/></mxCell><mxCell id="6poGFtXIilCESYOU6Tmr-88" value="" style="shape=partialRectangle;collapsible=0;dropTarget=0;pointerEvents=0;fillColor=none;top=0;left=0;bottom=1;right=0;points=[[0,0.5],[1,0.5]];portConstraint=eastwest;strokeColor=#DDA15E;fontColor=#FEFAE0;" parent="6poGFtXIilCESYOU6Tmr-84" vertex="1"><mxGeometry y="60" width="180" height="30" as="geometry"/></mxCell><mxCell id="6poGFtXIilCESYOU6Tmr-89" value="FK1" style="shape=partialRectangle;connectable=0;top=0;left=0;bottom=0;right=0;fontStyle=1;overflow=hidden;fillColor=#BC6C25;strokeColor=#DDA15E;fontColor=#FEFAE0;" parent="6poGFtXIilCESYOU6Tmr-88" vertex="1"><mxGeometry width="60" height="30" as="geometry"/></mxCell><mxCell id="6poGFtXIilCESYOU6Tmr-90" value="IdEmployee" style="shape=partialRectangle;connectable=0;top=0;left=0;bottom=0;right=0;align=left;spacingLeft=6;fontStyle=5;overflow=hidden;fillColor=#BC6C25;strokeColor=#DDA15E;fontColor=#FEFAE0;" parent="6poGFtXIilCESYOU6Tmr-88" vertex="1"><mxGeometry x="60" width="120" height="30" as="geometry"/></mxCell><mxCell id="6poGFtXIilCESYOU6Tmr-91" value="" style="shape=partialRectangle;collapsible=0;dropTarget=0;pointerEvents=0;fillColor=none;top=0;left=0;bottom=0;right=0;points=[[0,0.5],[1,0.5]];portConstraint=eastwest;strokeColor=#DDA15E;fontColor=#FEFAE0;" parent="6poGFtXIilCESYOU6Tmr-84" vertex="1"><mxGeometry y="90" width="180" height="30" as="geometry"/></mxCell><mxCell id="6poGFtXIilCESYOU6Tmr-92" value="" style="shape=partialRectangle;connectable=0;top=0;left=0;bottom=0;right=0;editable=1;overflow=hidden;fillColor=#BC6C25;strokeColor=#DDA15E;fontColor=#FEFAE0;" parent="6poGFtXIilCESYOU6Tmr-91" vertex="1"><mxGeometry width="60" height="30" as="geometry"/></mxCell><mxCell id="6poGFtXIilCESYOU6Tmr-93" value="Skills" style="shape=partialRectangle;connectable=0;top=0;left=0;bottom=0;right=0;align=left;spacingLeft=6;overflow=hidden;fillColor=#BC6C25;strokeColor=#DDA15E;fontColor=#FEFAE0;" parent="6poGFtXIilCESYOU6Tmr-91" vertex="1"><mxGeometry x="60" width="120" height="30" as="geometry"/></mxCell><mxCell id="6poGFtXIilCESYOU6Tmr-94" value="" style="shape=partialRectangle;collapsible=0;dropTarget=0;pointerEvents=0;fillColor=none;top=0;left=0;bottom=0;right=0;points=[[0,0.5],[1,0.5]];portConstraint=eastwest;strokeColor=#DDA15E;fontColor=#FEFAE0;" parent="6poGFtXIilCESYOU6Tmr-84" vertex="1"><mxGeometry y="120" width="180" height="30" as="geometry"/></mxCell><mxCell id="6poGFtXIilCESYOU6Tmr-95" value="" style="shape=partialRectangle;connectable=0;top=0;left=0;bottom=0;right=0;editable=1;overflow=hidden;fillColor=#BC6C25;strokeColor=#DDA15E;fontColor=#FEFAE0;" parent="6poGFtXIilCESYOU6Tmr-94" vertex="1"><mxGeometry width="60" height="30" as="geometry"/></mxCell><mxCell id="6poGFtXIilCESYOU6Tmr-96" value="Pozition" style="shape=partialRectangle;connectable=0;top=0;left=0;bottom=0;right=0;align=left;spacingLeft=6;overflow=hidden;fillColor=#BC6C25;strokeColor=#DDA15E;fontColor=#FEFAE0;" parent="6poGFtXIilCESYOU6Tmr-94" vertex="1"><mxGeometry x="60" width="120" height="30" as="geometry"/></mxCell><mxCell id="6poGFtXIilCESYOU6Tmr-97" value="Password" style="shape=partialRectangle;connectable=0;top=0;left=0;bottom=0;right=0;align=left;spacingLeft=6;overflow=hidden;fillColor=#BC6C25;strokeColor=#DDA15E;fontColor=#FEFAE0;" parent="fl2PcskqdFDL9NBK9kbo-1" vertex="1"><mxGeometry x="330" y="250" width="120" height="20" as="geometry"/></mxCell><mxCell id="6poGFtXIilCESYOU6Tmr-98" value="" style="shape=partialRectangle;connectable=0;top=0;left=0;bottom=0;right=0;editable=1;overflow=hidden;fillColor=#BC6C25;strokeColor=#DDA15E;fontColor=#FEFAE0;" parent="fl2PcskqdFDL9NBK9kbo-1" vertex="1"><mxGeometry x="270" y="240" width="60" height="30" as="geometry"/></mxCell><mxCell id="6poGFtXIilCESYOU6Tmr-99" value="" style="endArrow=classic;html=1;fontColor=#FEFAE0;strokeColor=#B20000;fillColor=#e51400;exitX=-0.001;exitY=0.151;exitDx=0;exitDy=0;exitPerimeter=0;" parent="fl2PcskqdFDL9NBK9kbo-1" source="fl2PcskqdFDL9NBK9kbo-15" edge="1"><mxGeometry width="50" height="50" relative="1" as="geometry"><mxPoint x="130" y="90" as="sourcePoint"/><mxPoint x="110" y="370" as="targetPoint"/></mxGeometry></mxCell><mxCell id="6poGFtXIilCESYOU6Tmr-126" value="Pozition" style="shape=partialRectangle;connectable=0;top=0;left=0;bottom=0;right=0;align=left;spacingLeft=6;overflow=hidden;fillColor=#BC6C25;strokeColor=#DDA15E;fontColor=#FEFAE0;" parent="fl2PcskqdFDL9NBK9kbo-1" vertex="1"><mxGeometry x="160" y="520" width="120" height="30" as="geometry"/></mxCell><mxCell id="6poGFtXIilCESYOU6Tmr-141" value="" style="shape=partialRectangle;connectable=0;top=0;left=0;bottom=0;right=0;editable=1;overflow=hidden;fillColor=#BC6C25;strokeColor=#DDA15E;fontColor=#FEFAE0;" parent="fl2PcskqdFDL9NBK9kbo-1" vertex="1"><mxGeometry x="100" y="520" width="60" height="30" as="geometry"/></mxCell></root></mxGraphModel></diagram><diagram id="tFzPAS-ifHlBW0gKskFX" name="Page-3"><mxGraphModel dx="870" dy="505" grid="1" gridSize="10" guides="1" tooltips="1" connect="1" arrows="1" fold="1" page="1" pageScale="1" pageWidth="850" pageHeight="1100" math="0" shadow="0"><root><mxCell id="a7qkWDBRTVfXxtpTpiOK-0"/><mxCell id="a7qkWDBRTVfXxtpTpiOK-1" parent="a7qkWDBRTVfXxtpTpiOK-0"/></root></mxGraphModel></diagram></mxfile>